<?xml version="1.0" standalone="no"?><svg xmlns:xlink="http://www.w3.org/1999/xlink" xmlns="http://www.w3.org/2000/svg" viewBox="0 0 1000 733.3333333333334" preserveAspectRatio="xMaxYMax slice"><g transform="scale(1.1299435028248588)"><rect x="0" y="0" width="885" height="649" fill="#ffffff"/><circle cx="29.5" cy="29.5" r="5.9" fill="#bdbdbd"/><circle cx="88.5" cy="29.5" r="5.9" fill="#363636"/><circle cx="147.5" cy="29.5" r="5.9" fill="#868686"/><circle cx="206.5" cy="29.5" r="5.9" fill="#fffafa"/><circle cx="265.5" cy="29.5" r="5.9" fill="#fffdfd"/><circle cx="324.5" cy="29.5" r="5.9" fill="#fffcfc"/><circle cx="383.5" cy="29.5" r="5.9" fill="#0a0a0a"/><circle cx="442.5" cy="29.5" r="5.9" fill="#fffdfd"/><circle cx="501.5" cy="29.5" r="5.9" fill="#fffcfc"/><circle cx="560.5" cy="29.5" r="5.9" fill="#fffefe"/><circle cx="619.5" cy="29.5" r="5.9" fill="#afafaf"/><circle cx="678.5" cy="29.5" r="5.9" fill="#fffcfc"/><circle cx="737.5" cy="29.5" r="5.9" fill="#fffefe"/><circle cx="796.5" cy="29.5" r="5.9" fill="#fffafa"/><circle cx="855.5" cy="29.5" r="5.9" fill="#aeaeae"/><circle cx="29.5" cy="88.5" r="5.9" fill="#fffefe"/><circle cx="88.5" cy="88.5" r="5.9" fill="#2f2f2f"/><circle cx="147.5" cy="88.5" r="5.9" fill="#fffefe"/><circle cx="206.5" cy="88.5" r="5.9" fill="#919191"/><circle cx="265.5" cy="88.5" r="5.9" fill="#898989"/><circle cx="324.5" cy="88.5" r="5.9" fill="#fffefe"/><circle cx="383.5" cy="88.5" r="5.9" fill="#fffcfc"/><circle cx="442.5" cy="88.5" r="5.9" fill="#dcdcdc"/><circle cx="501.5" cy="88.5" r="5.9" fill="#fffbfb"/><circle cx="560.5" cy="88.5" r="5.9" fill="#adadad"/><circle cx="619.5" cy="88.5" r="5.9" fill="#d4d4d4"/><circle cx="678.5" cy="88.5" r="5.9" fill="#050505"/><circle cx="737.5" cy="88.5" r="5.9" fill="#838383"/><circle cx="796.5" cy="88.5" r="5.9" fill="#2d2d2d"/><circle cx="855.5" cy="88.5" r="5.9" fill="#b3b3b3"/><circle cx="29.5" cy="147.5" r="5.9" fill="#aaaaaa"/><circle cx="88.5" cy="147.5" r="5.9" fill="#f8f8f8"/><circle cx="147.5" cy="147.5" r="5.9" fill="#a1a1a1"/><circle cx="206.5" cy="147.5" r="5.9" fill="#fffefe"/><circle cx="265.5" cy="147.5" r="5.9" fill="#fffefe"/><circle cx="324.5" cy="147.5" r="5.9" fill="#fffefe"/><circle cx="383.5" cy="147.5" r="5.9" fill="#9d9d9d"/><circle cx="442.5" cy="147.5" r="5.9" fill="#fffdfd"/><circle cx="501.5" cy="147.5" r="5.9" fill="#e9e9e9"/><circle cx="560.5" cy="147.5" r="5.9" fill="#fffdfd"/><circle cx="619.5" cy="147.5" r="5.9" fill="#fffdfd"/><circle cx="678.5" cy="147.5" r="5.9" fill="#343434"/><circle cx="737.5" cy="147.5" r="5.9" fill="#fffafa"/><circle cx="796.5" cy="147.5" r="5.9" fill="#fffbfb"/><circle cx="855.5" cy="147.5" r="5.9" fill="#fffefe"/><circle cx="29.5" cy="206.5" r="5.9" fill="#1b1b1b"/><circle cx="88.5" cy="206.5" r="5.9" fill="#676767"/><circle cx="147.5" cy="206.5" r="5.9" fill="#fffcfc"/><circle cx="206.5" cy="206.5" r="5.9" fill="#fdfdfd"/><circle cx="265.5" cy="206.5" r="5.9" fill="#717171"/><circle cx="324.5" cy="206.5" r="5.9" fill="#a0a0a0"/><circle cx="383.5" cy="206.5" r="5.9" fill="#fffdfd"/><circle cx="442.5" cy="206.5" r="5.9" fill="#fffbfb"/><circle cx="501.5" cy="206.5" r="5.9" fill="#888888"/><circle cx="560.5" cy="206.5" r="5.9" fill="#fffcfc"/><circle cx="619.5" cy="206.5" r="5.9" fill="#fffbfb"/><circle cx="678.5" cy="206.5" r="5.9" fill="#9a9a9a"/><circle cx="737.5" cy="206.5" r="5.9" fill="#fffcfc"/><circle cx="796.5" cy="206.5" r="5.9" fill="#fffafa"/><circle cx="855.5" cy="206.5" r="5.9" fill="#d5d5d5"/><circle cx="29.5" cy="265.5" r="5.9" fill="#fffbfb"/><circle cx="88.5" cy="265.5" r="5.9" fill="#151515"/><circle cx="147.5" cy="265.5" r="5.9" fill="#fffdfd"/><circle cx="206.5" cy="265.5" r="5.9" fill="#6c6c6c"/><circle cx="265.5" cy="265.5" r="5.9" fill="#fbfbfb"/><circle cx="324.5" cy="265.5" r="5.9" fill="#0b0b0b"/><circle cx="383.5" cy="265.5" r="5.9" fill="#828282"/><circle cx="442.5" cy="265.5" r="5.9" fill="#393939"/><circle cx="501.5" cy="265.5" r="5.9" fill="#5d5d5d"/><circle cx="560.5" cy="265.5" r="5.9" fill="#f9f9f9"/><circle cx="619.5" cy="265.5" r="5.9" fill="#767676"/><circle cx="678.5" cy="265.5" r="5.9" fill="#727272"/><circle cx="737.5" cy="265.5" r="5.9" fill="#fffbfb"/><circle cx="796.5" cy="265.5" r="5.9" fill="#888888"/><circle cx="855.5" cy="265.5" r="5.9" fill="#989898"/><circle cx="29.5" cy="324.5" r="5.9" fill="#212121"/><circle cx="88.5" cy="324.5" r="5.9" fill="#fffafa"/><circle cx="147.5" cy="324.5" r="5.9" fill="#fffbfb"/><circle cx="206.5" cy="324.5" r="5.9" fill="#5c5c5c"/><circle cx="265.5" cy="324.5" r="5.9" fill="#ffffff"/><circle cx="324.5" cy="324.5" r="5.9" fill="#ffffff"/><circle cx="383.5" cy="324.5" r="5.9" fill="#fffcfc"/><circle cx="442.5" cy="324.5" r="5.9" fill="#383838"/><circle cx="501.5" cy="324.5" r="5.9" fill="#fffbfb"/><circle cx="560.5" cy="324.5" r="5.9" fill="#fffbfb"/><circle cx="619.5" cy="324.5" r="5.9" fill="#b1b1b1"/><circle cx="678.5" cy="324.5" r="5.9" fill="#c7c7c7"/><circle cx="737.5" cy="324.5" r="5.9" fill="#fffcfc"/><circle cx="796.5" cy="324.5" r="5.9" fill="#f1f1f1"/><circle cx="855.5" cy="324.5" r="5.9" fill="#fffafa"/><circle cx="29.5" cy="383.5" r="5.9" fill="#fffbfb"/><circle cx="88.5" cy="383.5" r="5.9" fill="#fffbfb"/><circle cx="147.5" cy="383.5" r="5.9" fill="#d5d5d5"/><circle cx="206.5" cy="383.5" r="5.9" fill="#fffbfb"/><circle cx="265.5" cy="383.5" r="5.9" fill="#a2a2a2"/><circle cx="324.5" cy="383.5" r="5.9" fill="#fffdfd"/><circle cx="383.5" cy="383.5" r="5.9" fill="#fffcfc"/><circle cx="442.5" cy="383.5" r="5.9" fill="#fffcfc"/><circle cx="501.5" cy="383.5" r="5.9" fill="#2c2c2c"/><circle cx="560.5" cy="383.5" r="5.9" fill="#fffafa"/><circle cx="619.5" cy="383.5" r="5.9" fill="#6d6d6d"/><circle cx="678.5" cy="383.5" r="5.9" fill="#656565"/><circle cx="737.5" cy="383.5" r="5.9" fill="#121212"/><circle cx="796.5" cy="383.5" r="5.9" fill="#fffbfb"/><circle cx="855.5" cy="383.5" r="5.9" fill="#7a7a7a"/><circle cx="29.5" cy="442.5" r="5.9" fill="#fffbfb"/><circle cx="88.5" cy="442.5" r="5.9" fill="#232323"/><circle cx="147.5" cy="442.5" r="5.9" fill="#fffcfc"/><circle cx="206.5" cy="442.5" r="5.9" fill="#fffefe"/><circle cx="265.5" cy="442.5" r="5.9" fill="#fffbfb"/><circle cx="324.5" cy="442.5" r="5.9" fill="#f0f0f0"/><circle cx="383.5" cy="442.5" r="5.9" fill="#f3f3f3"/><circle cx="442.5" cy="442.5" r="5.9" fill="#747474"/><circle cx="501.5" cy="442.5" r="5.9" fill="#ffffff"/><circle cx="560.5" cy="442.5" r="5.9" fill="#ffffff"/><circle cx="619.5" cy="442.5" r="5.9" fill="#fffcfc"/><circle cx="678.5" cy="442.5" r="5.9" fill="#fffdfd"/><circle cx="737.5" cy="442.5" r="5.9" fill="#9e9e9e"/><circle cx="796.5" cy="442.5" r="5.9" fill="#fffbfb"/><circle cx="855.5" cy="442.5" r="5.9" fill="#fffefe"/><circle cx="29.5" cy="501.5" r="5.9" fill="#fffbfb"/><circle cx="88.5" cy="501.5" r="5.9" fill="#fffefe"/><circle cx="147.5" cy="501.5" r="5.9" fill="#7d7d7d"/><circle cx="206.5" cy="501.5" r="5.9" fill="#f9f9f9"/><circle cx="265.5" cy="501.5" r="5.9" fill="#fffafa"/><circle cx="324.5" cy="501.5" r="5.9" fill="#979797"/><circle cx="383.5" cy="501.5" r="5.9" fill="#fffcfc"/><circle cx="442.5" cy="501.5" r="5.9" fill="#323232"/><circle cx="501.5" cy="501.5" r="5.9" fill="#bdbdbd"/><circle cx="560.5" cy="501.5" r="5.9" fill="#fffbfb"/><circle cx="619.5" cy="501.5" r="5.9" fill="#626262"/><circle cx="678.5" cy="501.5" r="5.9" fill="#fffdfd"/><circle cx="737.5" cy="501.5" r="5.9" fill="#fffbfb"/><circle cx="796.5" cy="501.5" r="5.9" fill="#fffbfb"/><circle cx="855.5" cy="501.5" r="5.9" fill="#a0a0a0"/><circle cx="29.5" cy="560.5" r="5.9" fill="#fffdfd"/><circle cx="88.5" cy="560.5" r="5.9" fill="#d1d1d1"/><circle cx="147.5" cy="560.5" r="5.9" fill="#020202"/><circle cx="206.5" cy="560.5" r="5.9" fill="#ffffff"/><circle cx="265.5" cy="560.5" r="5.9" fill="#e5e5e5"/><circle cx="324.5" cy="560.5" r="5.9" fill="#fffcfc"/><circle cx="383.5" cy="560.5" r="5.9" fill="#ffffff"/><circle cx="442.5" cy="560.5" r="5.9" fill="#fffcfc"/><circle cx="501.5" cy="560.5" r="5.9" fill="#5f5f5f"/><circle cx="560.5" cy="560.5" r="5.9" fill="#fffdfd"/><circle cx="619.5" cy="560.5" r="5.9" fill="#fffefe"/><circle cx="678.5" cy="560.5" r="5.9" fill="#fffbfb"/><circle cx="737.5" cy="560.5" r="5.9" fill="#fffcfc"/><circle cx="796.5" cy="560.5" r="5.9" fill="#131313"/><circle cx="855.5" cy="560.5" r="5.9" fill="#fffdfd"/><circle cx="29.5" cy="619.5" r="5.9" fill="#fffefe"/><circle cx="88.5" cy="619.5" r="5.9" fill="#232323"/><circle cx="147.5" cy="619.5" r="5.9" fill="#494949"/><circle cx="206.5" cy="619.5" r="5.9" fill="#fffdfd"/><circle cx="265.5" cy="619.5" r="5.9" fill="#eeeeee"/><circle cx="324.5" cy="619.5" r="5.9" fill="#fffefe"/><circle cx="383.5" cy="619.5" r="5.9" fill="#fffafa"/><circle cx="442.5" cy="619.5" r="5.9" fill="#787878"/><circle cx="501.5" cy="619.5" r="5.9" fill="#fffefe"/><circle cx="560.5" cy="619.5" r="5.9" fill="#363636"/><circle cx="619.5" cy="619.5" r="5.9" fill="#ffffff"/><circle cx="678.5" cy="619.5" r="5.9" fill="#151515"/><circle cx="737.5" cy="619.5" r="5.9" fill="#040404"/><circle cx="796.5" cy="619.5" r="5.9" fill="#e9e9e9"/><circle cx="855.5" cy="619.5" r="5.9" fill="#fffcfc"/></g></svg>